/* XPM */
static char *bg[] = {
/* columns rows colors chars-per-pixel */
"22 22 113 2 ",
"   c #281900",
".  c #2A1A00",
"X  c #2C1B00",
"o  c #2E1C00",
"O  c #2F1D00",
"+  c #301D00",
"@  c #341F00",
"#  c #362000",
"$  c #372100",
"%  c #372300",
"&  c #392200",
"*  c #3C2300",
"=  c #3C2400",
"-  c #3E2400",
";  c #402600",
":  c #412600",
">  c #412700",
",  c #422700",
"<  c #432700",
"1  c #442800",
"2  c #452800",
"3  c #452900",
"4  c #462900",
"5  c #472900",
"6  c #472A00",
"7  c #432F00",
"8  c #492A00",
"9  c #482B00",
"0  c #492B00",
"q  c #4A2B00",
"w  c #4B2B00",
"e  c #4C2C00",
"r  c #4C2D00",
"t  c #4D2D00",
"y  c #4F2E00",
"u  c #502F00",
"i  c #512F00",
"p  c #522F00",
"a  c #443300",
"s  c #433F00",
"d  c #463D00",
"f  c #473D00",
"g  c #453E00",
"h  c #443F00",
"j  c #463E00",
"k  c #4B3B00",
"l  c #4D3900",
"z  c #4F3800",
"x  c #4E3900",
"c  c #4F3900",
"v  c #483C00",
"b  c #483D00",
"n  c #4A3C00",
"m  c #4A3D00",
"M  c #523000",
"N  c #533000",
"B  c #533100",
"V  c #543100",
"C  c #553100",
"Z  c #553200",
"A  c #563200",
"S  c #573200",
"D  c #573300",
"F  c #513700",
"G  c #523600",
"H  c #533600",
"J  c #523700",
"K  c #553400",
"L  c #543500",
"P  c #553500",
"I  c #563400",
"U  c #573400",
"Y  c #563500",
"T  c #543600",
"R  c #553601",
"E  c #5B3100",
"W  c #583200",
"Q  c #593200",
"!  c #583300",
"~  c #593300",
"^  c #5A3300",
"/  c #583400",
"(  c #5A3400",
")  c #503800",
"_  c #0C5E00",
"`  c #1C5500",
"'  c #1E5400",
"]  c #115A00",
"[  c #115B00",
"{  c #125B00",
"}  c #165900",
"|  c #145B00",
" . c #105C00",
".. c #2D4B00",
"X. c #2F4B00",
"o. c #2B4D00",
"O. c #2D4C00",
"+. c #2E4C00",
"@. c #374600",
"#. c #364700",
"$. c #3C4300",
"%. c #3D4300",
"&. c #3F4200",
"*. c #3B4400",
"=. c #3A4500",
"-. c #314900",
";. c #344800",
":. c #255000",
">. c #404000",
",. c #414000",
"<. c #404100",
"1. c #414100",
"2. c None",
/* pixels */
"2.2.2.2.2.2.2.2.2.2.2.2.2.2.2.2.2.2.2.2.2.2.",
"2.2.! ! / A ! ! U U U A / ! ! ! ! ! ! ! ! ! ",
"2.2.! ! A A ! ! H o.X.H A p A A ! ! ) <.x U ",
"2.2.! A - & A ! H @.-.H $ + $ 4 A / v { O.U ",
"2.2.! A - + M ! ! U ! ! 0 4 0 A ! ! & 7 U ! ",
"2.2.! ! H =.H ! ! ! U ! ! ! / A ! 0 . 4 ! ! ",
"2.2.! ! v { h A ! x -.<.! ! ! ! ! ! 0 ! ! ! ",
"2.2.! ! U <.a A ! h  .` E ! ! ! ! / v *.A ! ",
"2.2.! ! ! M X < ! ! ) x ! ! ! ! ! E { { h ! ",
"2.2.! ! ! A $ @ A ! ! ! A + p ! ! E <.%.! ! ",
"2.2.! ! ! ! / ! ! ! ! ! p < ! ! ! ! ! ! ! ! ",
"2.2.! ! ! ! A U ! ! ! ! A ! ! ! ! ! t A ! ! ",
"2.2.! ! ! 4 A H X.=.! ! ! ! ! ! ! < . 0 ! ! ",
"2.2.! ! < . t U _ :.U ! ! U U ! ! t < A ! ! ",
"2.2.! A 4 0 ! ! ) v ! ! ! <.O.) ! ! ! ! ! ! ",
"2.2.A z A ! ! ! ! ! p ! ! h ;.H ! ! / <.O.) ",
"2.2.s } h A ! ! ! p o 4 ! ! ! ! ! E / @.` ) ",
"2.2.H s p < t ! ! 0 X 0 ! ! ! e & X * ! / ! ",
"2.2.! ! 4 X & / ! ! p ! x h z ! - + e ! ! ! ",
"2.2.! ! A p ! ! ! ! ! ! %._ ' v A p ! ! ! ! ",
"2.2.! ! A ! ! ! ! ! ! ! ! h x U ! ! ! ! ! ! ",
"2.2.2.2.2.2.2.2.2.2.2.2.2.2.2.2.2.2.2.2.2.2."
};
