/* XPM */
static char *coin[] = {
/* columns rows colors chars-per-pixel */
"20 22 96 2 ",
"   c #D1A301",
".  c #D2A501",
"X  c #D3A501",
"o  c #D4A601",
"O  c #D6A701",
"+  c #D6A801",
"@  c #DAAB01",
"#  c #DBAD01",
"$  c #DBAC02",
"%  c #DDAE02",
"&  c #E4B402",
"*  c #E5B602",
"=  c #E7B702",
"-  c #E8B702",
";  c #EDBD02",
":  c #EEBE02",
">  c #F0BF02",
",  c #F1BF02",
"<  c #F1C002",
"1  c #F3C102",
"2  c #F3C202",
"3  c #F4C302",
"4  c #F5C302",
"5  c #F5C402",
"6  c #F7C502",
"7  c #FAC802",
"8  c #FBC802",
"9  c #FFCA00",
"0  c #FFCB00",
"q  c #FCC902",
"w  c #FCCA02",
"e  c #FDCA02",
"r  c #FDCB02",
"t  c #FECB02",
"y  c #FFCB02",
"u  c #FFCC00",
"i  c #FFCC01",
"p  c #FECC02",
"a  c #FFCC02",
"s  c #FFCC03",
"d  c #FFCC04",
"f  c #FFCC05",
"g  c #FFCC07",
"h  c #FFCE0B",
"j  c #FFCD0D",
"k  c #FFCE0D",
"l  c #FFCF13",
"z  c #FFCF16",
"x  c #FFCF17",
"c  c #FFD222",
"v  c #FFD226",
"b  c #FFD328",
"n  c #FFD42C",
"m  c #FFD634",
"M  c #FFD844",
"N  c #FFDA50",
"B  c #FFDD5B",
"V  c #FFDE5E",
"C  c #FFDE61",
"Z  c #FFE067",
"A  c #FFE06C",
"S  c #FFE379",
"D  c #FFE47B",
"F  c #FFE47E",
"G  c #FFE684",
"H  c #FFE78E",
"J  c #FFE78F",
"K  c #FFE991",
"L  c #FFEA97",
"P  c #FFEA9A",
"I  c #FFEBA0",
"U  c #FFEDA8",
"Y  c #FFEEAD",
"T  c #FFF0B7",
"R  c #FFF4CA",
"E  c #FFF4CB",
"W  c #FFF5CF",
"Q  c #FFF7D6",
"!  c #FFF6D7",
"~  c #FFF7D8",
"^  c #FFF9E2",
"/  c #FFF9E4",
"(  c #FFFAE7",
")  c #FFFBEE",
"_  c #FFFCED",
"`  c #FFFCEF",
"'  c #FFFCF2",
"]  c #FFFCF3",
"[  c #FFFDF7",
"{  c #FFFEF8",
"}  c #FFFEF9",
"|  c #FFFFFC",
" . c #FFFFFD",
".. c #FFFFFE",
"X. c white",
"o. c None",
/* pixels */
"o.o.o.o.o.o.o.o.o.o.o.o.o.o.o.o.o.o.o.o.",
"X.X.X.X.X.X.X.X.X.X.X.X.X.X.X.X.X.X.X.X.",
"X.X.X.X.X.X.X.X.X.X.X.X.X.X.X.X.X.X.X.X.",
"X.X.X.X.X.X.X.X.X.X.X.X.X.X.X.X.X.X.X.X.",
"X.X.X.X.X.X.X.X.X.X.X.X.X.X.X.X.X.X.X.X.",
"X.X.X.X.X.X.) T H G L ~ X.X.X.X.X.X.X.X.",
"X.X.X.X.} P l 9 9 9 9 9 S [ X.X.X.X.X.X.",
"X.X.X.X.H f a a a a a a f D } X.X.X.X.X.",
"X.X.X.Q k a a = % = 7 a a n W X.X.X.X.X.",
"X.X.X.A a a & . = $ < a a h U X.X.X.X.X.",
"X.X.[ v a 7 . < 9 7 7 a a a K } X.X.X.X.",
"X.X.^ z a ; $ 7 f a a a a a L X.X.X.X.X.",
"X.X.^ x a ; $ 9 a 6 7 a a k Y X.X.X.X.X.",
"X.X.' c f 5 . ; < O < a a v E X.X.X.X.X.",
"X.X.X.Z a 9 = + + & 9 a f C ' X.X.X.X.X.",
"X.X.X./ M 9 r 5 2 9 a a m ~ X.X.X.X.X.X.",
"X.X.X.X.` B 9 a a 9 a N _ X.X.X.X.X.X.X.",
"X.X.X.X.X.X./ I V F E X.X.X.X.X.X.X.X.X.",
"X.X.X.X.X.X.X.X.X.X.X.X.X.X.X.X.X.X.X.X.",
"X.X.X.X.X.X.X.X.X.X.X.X.X.X.X.X.X.X.X.X.",
"X.X.X.X.X.X.X.X.X.X.X.X.X.X.X.X.X.X.X.X.",
"X.X.X.X.X.X.X.X.X.X.X.X.X.X.X.X.X.X.X.X."
};
