/* XPM */
static char *enemy[] = {
/* columns rows colors chars-per-pixel */
"22 22 120 2 ",
"   c #7F1A22",
".  c #821B23",
"X  c #9F202A",
"o  c #BB343E",
"O  c #C22834",
"+  c #D82C3A",
"@  c #D92D3A",
"#  c #E22F3E",
"$  c #F92B3C",
"%  c #F1303F",
"&  c #DD3E4B",
"*  c #F43343",
"=  c #F93141",
"-  c #F93142",
";  c #F93242",
":  c #F83343",
">  c #F93343",
",  c #FA3343",
"<  c #FC3343",
"1  c #FB3344",
"2  c #F93444",
"3  c #F93544",
"4  c #F23E4D",
"5  c #F93848",
"6  c #F93E4D",
"7  c #F93F4E",
"8  c #FA4150",
"9  c #FA4251",
"0  c #FA4453",
"q  c #FA4655",
"w  c #FA4755",
"e  c #FA4756",
"r  c #FA5260",
"t  c #FA5663",
"y  c #FA5C68",
"u  c #FA5D69",
"i  c #FA606D",
"p  c #FB616D",
"a  c #FB6571",
"s  c #FB6873",
"d  c #FB6A75",
"f  c #FB6D78",
"g  c #FB6D79",
"h  c #FB6E79",
"j  c #FB6F7A",
"k  c #FB6F7B",
"l  c #FB767F",
"z  c #FB7781",
"x  c #FC7983",
"c  c #FB7C85",
"v  c #FC808A",
"b  c #FC858F",
"n  c #F48790",
"m  c #FC8690",
"M  c #FC8791",
"N  c #FC8A93",
"B  c #FC8C95",
"V  c #FC8F97",
"C  c #FC8F98",
"Z  c #FC969E",
"A  c #FC979F",
"S  c #FD9DA4",
"D  c #F7A7AD",
"F  c #FCA1A9",
"G  c #FDA2AA",
"H  c #FDA3AA",
"J  c #FDA6AC",
"K  c #FDA6AD",
"L  c #FDADB3",
"P  c #FEAEB4",
"I  c #FDB0B6",
"U  c #FDB1B7",
"Y  c #FDB4B9",
"T  c #FDB6BB",
"R  c #FDB7BD",
"E  c #FDBBC0",
"W  c #FEBCC0",
"Q  c #FEC3C8",
"!  c #FCC7CB",
"~  c #FDC7CB",
"^  c #FEC7CB",
"/  c #FEC9CD",
"(  c #FECCD0",
")  c #FED1D5",
"_  c #FED2D5",
"`  c #FED3D6",
"'  c #FED5D8",
"]  c #FED8DB",
"[  c #FEDADD",
"{  c #FEDBDE",
"}  c #FFDDDF",
"|  c #FEE1E3",
" . c #FEE4E6",
".. c #FFE4E6",
"X. c #FEE5E8",
"o. c #FEE6E8",
"O. c #FEE7E9",
"+. c #FFEAEC",
"@. c #FFECED",
"#. c #FEECEE",
"$. c #FFEFF0",
"%. c #FFF0F1",
"&. c #FEF1F2",
"*. c #FFF1F2",
"=. c #FFF4F5",
"-. c #FFF5F6",
";. c #FFF6F7",
":. c #FFF8F8",
">. c #FFF8F9",
",. c #FFF9F9",
"<. c snow",
"1. c #FFFBFB",
"2. c #FFFBFC",
"3. c #FFFCFC",
"4. c #FFFDFD",
"5. c #FFFDFE",
"6. c #FFFEFE",
"7. c #FFFEFF",
"8. c white",
"9. c None",
/* pixels */
"9.9.9.9.9.9.9.9.9.9.9.9.9.9.9.9.9.9.9.9.9.9.",
"9.9.9.9.9.9.9.9.9.9.9.9.9.9.9.9.9.9.9.9.9.9.",
"9.9.8.8.8.8.8.8.8.8.8.8.8.8.8.8.8.8.8.8.8.8.",
"9.9.8.8.8.8.8.8.8.8.8.8.8.8.8.8.8.8.8.8.8.8.",
"9.9.8.8.8.8.8.8.8.8. .U 8.8.8.8.8.8.8.8.8.8.",
"9.9.8.8.8.8.8.8.8.8.Z 6 Y 8.8.8.8.8.8.8.8.8.",
"9.9.8.8.8.8.8.8.8.` t , $ Y 2.8.8.8.8.8.8.8.",
"9.9.8.8.8.8.8.8.&.n * 2 2 4 D -.8.8.8.8.8.8.",
"9.9.8.8.8.8.8.8.! o   @ 1 . & P 1.8.8.8.8.8.",
"9.9.8.8.8.8.8.8.f % O @ # X * 9 ! 8.8.8.8.8.",
"9.9.8.8.8.8.8.R , 2 > > , < , , q } 8.8.8.8.",
"9.9.8.8.8.8.#.q , $ 2 > , , 8 a f Z 8.8.8.8.",
"9.9.8.8.8.8.J y M S N 9 , , q R -.8.8.8.8.8.",
"9.9.8.8.8.8.=.&.1.1.V 2 * , , d  .8.8.8.8.8.",
"9.9.8.8.8.8.8.8.8.[ y , , * 1 3 L 8.8.8.8.8.",
"9.9.8.8.8.8.8.8.8./ r p g q f z ! 8.8.8.8.8.",
"9.9.8.8.8.8.8.8.8.-.m ` ` c [ F +.8.8.8.8.8.",
"9.9.8.8.8.8.Q F O.-.m | / x &.B x l K 1.8.8.",
"9.9.8.8.8.| s Y f u U -.8.F P &.] X.K c #.8.",
"9.9.8.8.8.1.Z ' 8.8.8.8.8.| E 8.8.8.8.1.8.8.",
"9.9.8.8.8.8.-.#.8.8.8.8.8.8.8.8.8.8.8.8.8.8.",
"9.9.8.8.8.8.8.8.8.8.8.8.8.8.8.8.8.8.8.8.8.8."
};
