/* XPM */
static char *exit[] = {
/* columns rows colors chars-per-pixel */
"22 22 126 2 ",
"   c #14120B",
".  c #2F2D27",
"X  c #22242B",
"o  c #2F2F2F",
"O  c #393525",
"+  c #333434",
"@  c #39393A",
"#  c #3A3A3A",
"$  c #5E5121",
"%  c #414038",
"&  c gray26",
"*  c gray28",
"=  c #5C5745",
"-  c gray32",
";  c #535354",
":  c gray33",
">  c #565654",
",  c #5D5D5E",
"<  c #5F5F5F",
"1  c #756B44",
"2  c #756B48",
"3  c #6E6855",
"4  c gray39",
"5  c #676767",
"6  c #6F6F70",
"7  c #717171",
"8  c gray45",
"9  c gray46",
"0  c #7C7A73",
"q  c #7E7F7F",
"w  c gray50",
"e  c #8C751B",
"r  c #86742F",
"t  c #8F7D36",
"y  c #80713B",
"u  c #80723B",
"i  c #82743C",
"p  c #957F32",
"a  c #8C7D42",
"s  c #9B801E",
"d  c #978028",
"f  c #9D8A3E",
"g  c #D6B125",
"h  c #D9B732",
"j  c #D9B633",
"k  c #DBB832",
"l  c #DCBA34",
"z  c #FCCF2C",
"x  c #FCD02B",
"c  c #FDD02B",
"v  c #FCD02E",
"b  c #FDD02E",
"n  c #FCD02F",
"m  c #FDD02F",
"M  c #FDD12F",
"N  c #FFD42F",
"B  c #E7C133",
"V  c #F4CB30",
"C  c #FFD331",
"Z  c #FED63F",
"A  c #8C8256",
"S  c #AE9640",
"D  c #B49F46",
"F  c #BAA349",
"G  c #8D8875",
"H  c #AEA26F",
"J  c #D2BD65",
"K  c #E6C444",
"L  c #FED643",
"P  c #FDD646",
"I  c #E5C952",
"U  c #FFDE58",
"Y  c gray51",
"T  c #868686",
"R  c #909090",
"E  c #929292",
"W  c #929393",
"Q  c #959595",
"!  c #979797",
"~  c #97989A",
"^  c #9A9A9A",
"/  c #9C9C99",
"(  c #B8B393",
")  c #B8B497",
"_  c #A0A0A0",
"`  c #A2A2A2",
"'  c gray64",
"]  c #A4A4A4",
"[  c #A5A5A5",
"{  c #A7A7A7",
"}  c #AAAAAA",
"|  c gray68",
" . c #AEAEAE",
".. c #B1AEA3",
"X. c #B2B2B2",
"o. c #B2B2B4",
"O. c #B4B4B4",
"+. c gray71",
"@. c gray72",
"#. c #BBBBBB",
"$. c gray",
"%. c #EAD583",
"&. c #C2C3B4",
"*. c #CCCABB",
"=. c #BCBEC4",
"-. c gray81",
";. c gray82",
":. c #D2D2D2",
">. c gray83",
",. c gray85",
"<. c #DADADA",
"1. c gray89",
"2. c gray90",
"3. c #E5E5E6",
"4. c #E9E9EA",
"5. c gray94",
"6. c gray95",
"7. c gray96",
"8. c gray97",
"9. c #F9F9F9",
"0. c gray98",
"q. c #FCFCFD",
"w. c #FDFDFD",
"e. c #FEFEFE",
"r. c white",
"t. c None",
/* pixels */
"r.r.r.r.r.r.r.r.r.r.r.r.r.r.r.r.r.r.r.r.r.t.",
"r.r.r.r.r.r.r.r.r.r.r.r.r.r.r.r.r.r.r.r.r.t.",
"r.r.r.r.r.r.r.r.r.r.r.r.r.r.r.r.r.r.r.r.r.t.",
"r.r.r.r.r.r.r.r.r.r.r.r.r.r.r.r.r.r.r.r.r.t.",
"r.r.r.r.r.r.r.r.r.r.r.,.9 _ 6.r.r.r.r.r.r.t.",
"r.r.r.r.r.r.r.r.r.r.r.4 ] 5 | r.r.r.r.r.r.t.",
"r.r.r.r.r.r.r.r.r.r.9.- r.,.>.r.9.9.r.r.r.t.",
"r.r.r.r.r.r.r.r.r.r.;.& ] } X.#.! _ 2.r.r.t.",
"r.r.r.r.r.r.r.r.r.r.+., | ] _ Y > ^ X.q.r.t.",
"r.r.r.r.r.r.;.W 6 , # o 5 q X.-.7 7.5.r.r.t.",
"r.r.r.r.~ X # f J %.=.2 I F $   4 r.r.r.r.t.",
"r.r.1.3 a K Z C v x &.e j j j a + R r.r.r.t.",
"r.r.X.t V v v z v v ) O 1 i 1 # w 5 r.r.r.t.",
"r.r.2.G d N C C v v ) d L P U = > ^ r.r.r.t.",
"r.r.r.4...u s g B j *.H F S r . E 4.r.r.r.t.",
"r.r.r.r.r.r.;./ 0 > * < 8 T O.7.r.r.r.r.r.t.",
"r.r.r.r.r.r.r.r.r.r.r.r.r.r.r.r.r.r.r.r.r.t.",
"r.r.r.r.r.r.r.r.r.r.r.r.r.r.r.r.r.r.r.r.r.t.",
"r.r.r.r.r.r.r.r.r.r.r.r.r.r.r.r.r.r.r.r.r.t.",
"r.r.r.r.r.r.r.r.r.r.r.r.r.r.r.r.r.r.r.r.r.t.",
"r.r.r.r.r.r.r.r.r.r.r.r.r.r.r.r.r.r.r.r.r.t.",
"t.t.t.t.t.t.t.t.t.t.t.t.t.t.t.t.t.t.t.t.t.t."
};
