/* XPM */
static char *_daec6407b6c4d69f50c004234b746b9mmj8ARXbzPNDLRCH[] = {
/* columns rows colors chars-per-pixel */
"22 22 82 1 ",
"  c None",
". c gray23",
"X c gray24",
"o c #3F3F3F",
"O c #414141",
"+ c gray26",
"@ c #434343",
"# c gray27",
"$ c #4C4C4C",
"% c #4E4E4E",
"& c #515151",
"* c #555555",
"= c #5D5D5D",
"- c #5F5F5F",
"; c gray38",
": c #626262",
"> c gray43",
", c #717171",
"< c #727272",
"1 c gray46",
"2 c #777777",
"3 c gray47",
"4 c #797979",
"5 c #7B7B7B",
"6 c #7E7E7E",
"7 c gray50",
"8 c gray51",
"9 c #848484",
"0 c #888888",
"q c gray54",
"w c #8B8B8B",
"e c gray55",
"r c gray56",
"t c gray57",
"y c #939393",
"u c gray58",
"i c gray59",
"p c #989898",
"a c #9D9D9D",
"s c #A0A0A0",
"d c #A7A7A7",
"f c #ACACAC",
"g c #B1B1B1",
"h c #B7B7B7",
"j c gray72",
"k c #BBBBBB",
"l c #BCBCBC",
"z c #C1C1C1",
"x c gray76",
"c c #C5C5C5",
"v c #C8C8C8",
"b c gray79",
"n c #CACACA",
"m c #CDCDCD",
"M c gray81",
"N c gray83",
"B c #D5D5D5",
"V c gray84",
"C c #D8D8D8",
"Z c #DDDDDD",
"A c gray87",
"S c #DFDFDF",
"D c gray88",
"F c gray89",
"G c gray91",
"H c #E9E9E9",
"J c gray92",
"K c #ECECEC",
"L c gray93",
"P c #F1F1F1",
"I c gray95",
"U c #F3F3F3",
"Y c #F4F4F4",
"T c gray96",
"R c #F6F6F6",
"E c gray97",
"W c gray98",
"Q c #FBFBFB",
"! c gray99",
"~ c #FDFDFD",
"^ c #FEFEFE",
"/ c white",
/* pixels */
"                      ",
"                      ",
"//////////////////////",
"//////////////////////",
"//////////////////////",
"///////Ds3>7jT////////",
"//////g*abNz3iT///////",
"/////J%SG///J7C///////",
"/////9iq9L//G8C///////",
"/////-jU////jqJ///////",
"/////d@eT//b,b////////",
"/////Tt@&-@:mW////////",
"////////TjX///////////",
"//////TWU,.m//////////",
"//////cfe#:$L/////////",
"//////N3t7*:T/////////",
"///////GU,iN//////////",
"/////////@d///////////",
"////////l-X///////////",
"///////U3bXlSJ////////",
"///////N-jm9qeD///////",
"///////Uz1/LSNT///////"
};
