/* XPM */
static char *ce1db9ff9ba84650bf986a36f8473efeLtJS9q16XV4Nhz4H[] = {
/* columns rows colors chars-per-pixel */
"22 22 93 2 ",
"   c None",
".  c #1D1D1D",
"X  c #373737",
"o  c gray23",
"O  c gray24",
"+  c #3F3F3F",
"@  c #414141",
"#  c gray26",
"$  c #434343",
"%  c #494949",
"&  c gray31",
"*  c #515151",
"=  c gray33",
"-  c #555555",
";  c #565656",
":  c #5B5B5B",
">  c #5D5D5D",
",  c gray37",
"<  c #5F5F5F",
"1  c gray39",
"2  c #646464",
"3  c gray42",
"4  c #6C6C6C",
"5  c gray43",
"6  c #6F6F6F",
"7  c #777777",
"8  c gray47",
"9  c #7B7B7B",
"0  c #808080",
"q  c #818181",
"w  c gray51",
"e  c #838383",
"r  c #848484",
"t  c gray53",
"y  c #888888",
"u  c gray54",
"i  c gray55",
"p  c gray56",
"a  c #959595",
"s  c #979797",
"d  c #9A9A9A",
"f  c #9B9B9B",
"g  c #9D9D9D",
"h  c gray62",
"j  c gray63",
"k  c #A2A2A2",
"l  c #A7A7A7",
"z  c gray66",
"x  c #A9A9A9",
"c  c #AAAAAA",
"v  c #ACACAC",
"b  c #AFAFAF",
"n  c #B1B1B1",
"m  c #B4B4B4",
"M  c #B7B7B7",
"N  c gray72",
"B  c #BCBCBC",
"V  c gray",
"C  c gray76",
"Z  c #C3C3C3",
"A  c gray78",
"S  c #C8C8C8",
"D  c #CACACA",
"F  c #CBCBCB",
"G  c #CDCDCD",
"H  c #D0D0D0",
"J  c gray82",
"K  c LightGray",
"L  c #D7D7D7",
"P  c gray85",
"I  c #DDDDDD",
"U  c gray87",
"Y  c gray88",
"T  c #E6E6E6",
"R  c #E7E7E7",
"E  c gray91",
"W  c #E9E9E9",
"Q  c #EAEAEA",
"!  c gray92",
"~  c #ECECEC",
"^  c #EEEEEE",
"/  c #EFEFEF",
"(  c #F1F1F1",
")  c gray95",
"_  c #F6F6F6",
"`  c #F8F8F8",
"'  c #F9F9F9",
"]  c gray98",
"[  c #FBFBFB",
"{  c gray99",
"}  c #FDFDFD",
"|  c #FEFEFE",
" . c white",
/* pixels */
"   . . . . . . . . . . . . . . . . . . . . .",
"   . . . . . . . . . . . . . . . . . . . . .",
"   . . . . . . . . . . . . . . . . . . . . .",
"   . . . . . . .U k 9 5 0 N _  . . . . . . .",
"   . . . . . .n - g A L Z 7 s _  . . . . . .",
"   . . . . .Q & ~  .T o 5 U 0 P  . . . . . .",
"   . . . . .r z  . . .D Z Y 0 P  . . . . . .",
"   . . . . .> D  . . . .D 0 y ~  . . . . . .",
"   . . . . .l 7 ~  . . .f $ D  . . . . . . .",
"   . . . . ._ g - - > $ 1 G '  . . . . . . .",
"   . . . . . . . .' B O  . . . . . . . . . .",
"   . . . . . . . .~ : X U  .~ Q  . . . . . .",
"   . . . . . . .Q y * % 3 J y n  . . . . . .",
"   . . . . . .) p p r v 0 > z )  . . . . . .",
"   . . . . . .Q r B 5 J Q J '  . . . . . . .",
"   . . . . . . . . .$ z  . . . . . . . . . .",
"   . . . . . . . .M > O  . . . . . . . . . .",
"   . . . . .Q n z 5 D . T  . . . . . . . . .",
"   . . . . .U f k v y 1 Q  . . . . . . . . .",
"   . . . . . . .' s f Q  . . . . . . . . . .",
"   . . . . . . . ._ '  . . . . . . . . . . .",
"                                            "
};
