/* XPM */
static char *player[] = {
/* columns rows colors chars-per-pixel */
"20 22 80 1 ",
"  c #484848",
". c #494949",
"X c #4C4C4C",
"o c gray30",
"O c #4E4E4E",
"+ c gray33",
"@ c gray35",
"# c gray38",
"$ c gray40",
"% c #676767",
"& c #6D6D6D",
"* c gray43",
"= c #727272",
"- c gray45",
"; c #747474",
": c gray46",
"> c #7C7C7C",
", c gray49",
"< c #7E7E7E",
"1 c gray50",
"2 c gray51",
"3 c #868686",
"4 c gray53",
"5 c #888888",
"6 c #8B8B8B",
"7 c gray55",
"8 c #959595",
"9 c gray59",
"0 c #979797",
"q c #A0A0A0",
"w c #A2A2A2",
"e c gray64",
"r c gray66",
"t c #A9A9A9",
"y c gray68",
"u c #AFAFAF",
"i c #B2B2B2",
"p c #B6B6B6",
"a c #B9B9B9",
"s c #BBBBBB",
"d c #BCBCBC",
"f c gray74",
"g c #C1C1C1",
"h c gray76",
"j c gray77",
"k c gray79",
"l c gray80",
"z c gray81",
"x c gray82",
"c c LightGray",
"v c #D8D8D8",
"b c gainsboro",
"n c #DDDDDD",
"m c gray87",
"M c #DFDFDF",
"N c gray88",
"B c #E1E1E1",
"V c gray90",
"C c #E7E7E7",
"Z c gray91",
"A c #E9E9E9",
"S c #EAEAEA",
"D c gray92",
"F c gray93",
"G c #EEEEEE",
"H c gray94",
"J c gray95",
"K c #F3F3F3",
"L c #F4F4F4",
"P c gray96",
"I c #F6F6F6",
"U c gray97",
"Y c #F8F8F8",
"T c #F9F9F9",
"R c gray98",
"E c gray99",
"W c #FDFDFD",
"Q c #FEFEFE",
"! c white",
"~ c None",
/* pixels */
"!!!!!!!!!!!!!!!!!!!!",
"!!!!!!!!!!!!!!!!!!!!",
"!!!!!!!!!!!!!!!!!!!!",
"!!!!!!!j5;;0S!!!!!!!",
"!!!!!H;=pxxwOS!!!!!!",
"!!!!!w9Y!!I!y9!!!!!!",
"!!!!H5d$kx%Bi9!!!!!!",
"!!!!G1C!BaYI%l!!!!!!",
"!!!!I5tYChB=9!!!!!!!",
"!!!!!M1O@+XrI!!!!!!!",
"!!!!!!!!S3h!!!!!!!!!",
"!!!!!!!!vX8C!!!!!!!!",
"!!!!!!!S# $1k!!!!!!!",
"!!!!!!I*93bd*M!!!!!!",
"!!!!!!b8C1G!MH!!!!!!",
"!!!!!!!!M M!!!!!!!!!",
"!!!!!!!!3Oa!!!!!!!!!",
"!!!!!!!SOy9Y!!!!!!!!",
"!!!!!!!1wG2G!!!!!!!!",
"!!!!!!I*H!MY!!!!!!!!",
"!!!!!!!I!!!!!!!!!!!!",
"~~~~~~~~~~~~~~~~~~~~"
};
