/* XPM */
static char *f7c5f9b7eda14989f5771dfdc42c487bNnI283quq4r782Pv[] = {
/* columns rows colors chars-per-pixel */
"22 20 26 1 ",
"  c None",
". c #343434",
"X c #353535",
"o c gray21",
"O c #373737",
"+ c gray22",
"@ c #393939",
"# c #3A3A3A",
"$ c gray23",
"% c #3C3C3C",
"& c gray24",
"* c #3E3E3E",
"= c #3F3F3F",
"- c gray25",
"; c #414141",
": c gray26",
"> c #434343",
", c #444444",
"< c gray27",
"1 c #464646",
"2 c gray28",
"3 c #484848",
"4 c #494949",
"5 c gray29",
"6 c #4B4B4B",
"7 c #4C4C4C",
/* pixels */
" 2>337773722233322333 ",
"2>>233377322222222222 ",
"2>$>>o%22o%>22%$>2222 ",
"22%>2%22>%%>%22%o$222 ",
"22$%22%$%22>$>22$o222 ",
"2>>2222o$>22$$2222222 ",
"2%%2>%>222222>2232222 ",
"2>$>>o%222>222%22%%22 ",
"22>%22222oo22$o22$$>2 ",
"%o>2%>22>$o2>$o%2>%22 ",
">$%%$$$%2>$>22>$%2$%2 ",
"2>$>22$$222o>22222$o2 ",
"2>.o%22223>$$>$>222>2 ",
"22>%%22%2%2222$.>>>22 ",
"2>>2222%$$22>%22>$o22 ",
"2$$22222>222>o%22>o>2 ",
"2%$%$>222%$22>>22>%22 ",
"2222%o>2>o.2222>22%22 ",
"22>222>>22o>>$>.%2o$2 ",
"2%o%22o$$>2>>$%>%2%>2 "
};
